<?xml version="1.0" encoding="UTF-8"?><!DOCTYPE svg PUBLIC "-//W3C//DTD SVG 1.1//EN" "http://www.w3.org/Graphics/SVG/1.1/DTD/svg11.dtd"><svg xmlns="http://www.w3.org/2000/svg" xmlns:xlink="http://www.w3.org/1999/xlink"><defs>
<filter id="filter0_d_1_1031" x="0" y="0" width="36" height="36" filterUnits="userSpaceOnUse" color-interpolation-filters="sRGB">
<feFlood flood-opacity="0" result="BackgroundImageFix"/>
<feColorMatrix in="SourceAlpha" type="matrix" values="0 0 0 0 0 0 0 0 0 0 0 0 0 0 0 0 0 0 127 0" result="hardAlpha"/>
<feOffset dy="4"/>
<feGaussianBlur stdDeviation="4"/>
<feComposite in2="hardAlpha" operator="out"/>
<feColorMatrix type="matrix" values="0 0 0 0 0.493247 0 0 0 0 0.484531 0 0 0 0 0.55528 0 0 0 0.1 0"/>
<feBlend mode="normal" in2="BackgroundImageFix" result="effect1_dropShadow_1_1031"/>
<feBlend mode="normal" in="SourceGraphic" in2="effect1_dropShadow_1_1031" result="shape"/>
</filter>
<clipPath id="clip0_1_1031">
<rect width="13.3333" height="13.3333" fill="white" transform="translate(11.3359 7.33301)"/>
</clipPath>
</defs><symbol id="upload-clip" viewBox="0 0 36 36">
<g filter="url(#filter0_d_1_1031)">
<circle cx="18" cy="14" r="10" fill="white"/>
</g>
<g clip-path="url(#clip0_1_1031)">
<path d="M18.5595 17.8889C18.5595 18.2778 18.6317 18.65 18.7539 19H14.115C13.8203 19 13.5377 18.8829 13.3293 18.6746C13.121 18.4662 13.0039 18.1836 13.0039 17.8889V10.1111C13.0039 9.5 13.5039 9 14.115 9H21.8928C22.1875 9 22.4701 9.11706 22.6785 9.32544C22.8868 9.53381 23.0039 9.81643 23.0039 10.1111V14.75C22.6539 14.6278 22.2817 14.5556 21.8928 14.5556V10.1111H14.115V17.8889H18.5595ZM19.0928 14.1611L17.565 16.1278L16.4761 14.8167L14.9484 16.7778H18.7539C18.9761 16.1556 19.3761 15.6167 19.8928 15.2278L19.0928 14.1611ZM22.4483 17.3333V15.6667H21.3372V17.3333H19.6706V18.4444H21.3372V20.1111H22.4483V18.4444H24.115V17.3333H22.4483Z" fill="#5E6DFA"/>
</g>

</symbol><symbol id="upload" viewBox="0 0 64 64">
<path d="M64 32C64 49.6731 49.6731 64 32 64C14.3269 64 0 49.6731 0 32C0 14.3269 14.3269 0 32 0C49.6731 0 64 14.3269 64 32ZM0.568159 32C0.568159 49.3593 14.6407 63.4318 32 63.4318C49.3593 63.4318 63.4318 49.3593 63.4318 32C63.4318 14.6407 49.3593 0.568159 32 0.568159C14.6407 0.568159 0.568159 14.6407 0.568159 32Z" fill="#A5ADF3"/>
<circle cx="32" cy="32" r="30" fill="#F6F7FB"/>
<path fill-rule="evenodd" clip-rule="evenodd" d="M27.7874 22.2142C27.1457 22.0217 26.5 22.5021 26.5 23.172V42H30V38.5C30 37.9477 30.4477 37.5 31 37.5H33C33.5523 37.5 34 37.9477 34 38.5V42H37.5V25.872C37.5 25.4304 37.2103 25.0411 36.7873 24.9142L27.7874 22.2142ZM30 28C29.7239 28 29.5 28.2239 29.5 28.5V29.5C29.5 29.7761 29.7239 30 30 30H31C31.2761 30 31.5 29.7761 31.5 29.5V28.5C31.5 28.2239 31.2761 28 31 28H30ZM29.5 31.5C29.5 31.2239 29.7239 31 30 31H31C31.2761 31 31.5 31.2239 31.5 31.5V32.5C31.5 32.7761 31.2761 33 31 33H30C29.7239 33 29.5 32.7761 29.5 32.5V31.5ZM30 34C29.7239 34 29.5 34.2239 29.5 34.5V35.5C29.5 35.7761 29.7239 36 30 36H31C31.2761 36 31.5 35.7761 31.5 35.5V34.5C31.5 34.2239 31.2761 34 31 34H30ZM32.5 28.5C32.5 28.2239 32.7239 28 33 28H34C34.2761 28 34.5 28.2239 34.5 28.5V29.5C34.5 29.7761 34.2761 30 34 30H33C32.7239 30 32.5 29.7761 32.5 29.5V28.5ZM33 31C32.7239 31 32.5 31.2239 32.5 31.5V32.5C32.5 32.7761 32.7239 33 33 33H34C34.2761 33 34.5 32.7761 34.5 32.5V31.5C34.5 31.2239 34.2761 31 34 31H33ZM32.5 34.5C32.5 34.2239 32.7239 34 33 34H34C34.2761 34 34.5 34.2239 34.5 34.5V35.5C34.5 35.7761 34.2761 36 34 36H33C32.7239 36 32.5 35.7761 32.5 35.5V34.5Z" fill="#CACEE1"/>
<path d="M25.5 42V25H24C23.4477 25 23 25.4477 23 26V41H22.5C22.2239 41 22 41.2239 22 41.5C22 41.7761 22.2239 42 22.5 42H25.5Z" fill="#CACEE1"/>
<path d="M41.5 42H38.5V28.7812L40.4961 29.9219C40.8077 30.1 41 30.4313 41 30.7902V41H41.5C41.7761 41 42 41.2239 42 41.5C42 41.7761 41.7761 42 41.5 42Z" fill="#CACEE1"/>
<path d="M33 42V38.5H31V42H33Z" fill="#CACEE1"/>
</symbol><symbol id="users" viewBox="0 0 26 26">
                <circle cx="13" cy="13.0001" r="13" fill="#F6F7FB"/>
                <path d="M10.8334 14.7334C12.389 14.7334 13.65 13.4724 13.65 11.9168C13.65 10.3612 12.389 9.1001 10.8334 9.1001C9.27776 9.1001 8.01669 10.3612 8.01669 11.9168C8.01669 13.4724 9.27776 14.7334 10.8334 14.7334Z" stroke="#81859C" stroke-width="0.8" stroke-linecap="round" stroke-linejoin="round"/>
                <path d="M14.4842 9.20301C14.7332 9.13548 14.99 9.10088 15.2479 9.1001C15.995 9.1001 16.7114 9.39685 17.2396 9.92508C17.7679 10.4533 18.0646 11.1697 18.0646 11.9168C18.0646 12.6638 17.7679 13.3802 17.2396 13.9084C16.7114 14.4367 15.995 14.7334 15.2479 14.7334" stroke="#81859C" stroke-width="0.8" stroke-linecap="round" stroke-linejoin="round"/>
                <path d="M6.93335 16.7593C7.37315 16.1334 7.95712 15.6226 8.63592 15.27C9.31472 14.9174 10.0684 14.7333 10.8333 14.7333C11.5983 14.7333 12.352 14.9174 13.0308 15.27C13.7096 15.6226 14.2935 16.1334 14.7333 16.7593" stroke="#81859C" stroke-width="0.8" stroke-linecap="round" stroke-linejoin="round"/>
                <path d="M15.2479 14.7335C16.0129 14.733 16.7668 14.9169 17.4456 15.2695C18.1245 15.6221 18.7084 16.1331 19.1479 16.7593" stroke="#81859C" stroke-width="0.8" stroke-linecap="round" stroke-linejoin="round"/>
              </symbol></svg>