<svg width="64" height="64" viewBox="0 0 64 64" fill="none" xmlns="http://www.w3.org/2000/svg">
<path d="M64 32C64 49.6731 49.6731 64 32 64C14.3269 64 0 49.6731 0 32C0 14.3269 14.3269 0 32 0C49.6731 0 64 14.3269 64 32ZM0.568159 32C0.568159 49.3593 14.6407 63.4318 32 63.4318C49.3593 63.4318 63.4318 49.3593 63.4318 32C63.4318 14.6407 49.3593 0.568159 32 0.568159C14.6407 0.568159 0.568159 14.6407 0.568159 32Z" fill="#A5ADF3"/>
<circle cx="32" cy="32" r="30" fill="#F6F7FB"/>
<path fill-rule="evenodd" clip-rule="evenodd" d="M27.7874 22.2142C27.1457 22.0217 26.5 22.5021 26.5 23.172V42H30V38.5C30 37.9477 30.4477 37.5 31 37.5H33C33.5523 37.5 34 37.9477 34 38.5V42H37.5V25.872C37.5 25.4304 37.2103 25.0411 36.7873 24.9142L27.7874 22.2142ZM30 28C29.7239 28 29.5 28.2239 29.5 28.5V29.5C29.5 29.7761 29.7239 30 30 30H31C31.2761 30 31.5 29.7761 31.5 29.5V28.5C31.5 28.2239 31.2761 28 31 28H30ZM29.5 31.5C29.5 31.2239 29.7239 31 30 31H31C31.2761 31 31.5 31.2239 31.5 31.5V32.5C31.5 32.7761 31.2761 33 31 33H30C29.7239 33 29.5 32.7761 29.5 32.5V31.5ZM30 34C29.7239 34 29.5 34.2239 29.5 34.5V35.5C29.5 35.7761 29.7239 36 30 36H31C31.2761 36 31.5 35.7761 31.5 35.5V34.5C31.5 34.2239 31.2761 34 31 34H30ZM32.5 28.5C32.5 28.2239 32.7239 28 33 28H34C34.2761 28 34.5 28.2239 34.5 28.5V29.5C34.5 29.7761 34.2761 30 34 30H33C32.7239 30 32.5 29.7761 32.5 29.5V28.5ZM33 31C32.7239 31 32.5 31.2239 32.5 31.5V32.5C32.5 32.7761 32.7239 33 33 33H34C34.2761 33 34.5 32.7761 34.5 32.5V31.5C34.5 31.2239 34.2761 31 34 31H33ZM32.5 34.5C32.5 34.2239 32.7239 34 33 34H34C34.2761 34 34.5 34.2239 34.5 34.5V35.5C34.5 35.7761 34.2761 36 34 36H33C32.7239 36 32.5 35.7761 32.5 35.5V34.5Z" fill="#CACEE1"/>
<path d="M25.5 42V25H24C23.4477 25 23 25.4477 23 26V41H22.5C22.2239 41 22 41.2239 22 41.5C22 41.7761 22.2239 42 22.5 42H25.5Z" fill="#CACEE1"/>
<path d="M41.5 42H38.5V28.7812L40.4961 29.9219C40.8077 30.1 41 30.4313 41 30.7902V41H41.5C41.7761 41 42 41.2239 42 41.5C42 41.7761 41.7761 42 41.5 42Z" fill="#CACEE1"/>
<path d="M33 42V38.5H31V42H33Z" fill="#CACEE1"/>
</svg>
