<svg
                width="26"
                height="26"
                viewBox="0 0 26 26"
                fill="none"
                xmlns="http://www.w3.org/2000/svg"
              >
                <circle cx="13" cy="13.0001" r="13" fill="#F6F7FB" />
                <path
                  d="M10.8334 14.7334C12.389 14.7334 13.65 13.4724 13.65 11.9168C13.65 10.3612 12.389 9.1001 10.8334 9.1001C9.27776 9.1001 8.01669 10.3612 8.01669 11.9168C8.01669 13.4724 9.27776 14.7334 10.8334 14.7334Z"
                  stroke="#81859C"
                  stroke-width="0.8"
                  stroke-linecap="round"
                  stroke-linejoin="round"
                />
                <path
                  d="M14.4842 9.20301C14.7332 9.13548 14.99 9.10088 15.2479 9.1001C15.995 9.1001 16.7114 9.39685 17.2396 9.92508C17.7679 10.4533 18.0646 11.1697 18.0646 11.9168C18.0646 12.6638 17.7679 13.3802 17.2396 13.9084C16.7114 14.4367 15.995 14.7334 15.2479 14.7334"
                  stroke="#81859C"
                  stroke-width="0.8"
                  stroke-linecap="round"
                  stroke-linejoin="round"
                />
                <path
                  d="M6.93335 16.7593C7.37315 16.1334 7.95712 15.6226 8.63592 15.27C9.31472 14.9174 10.0684 14.7333 10.8333 14.7333C11.5983 14.7333 12.352 14.9174 13.0308 15.27C13.7096 15.6226 14.2935 16.1334 14.7333 16.7593"
                  stroke="#81859C"
                  stroke-width="0.8"
                  stroke-linecap="round"
                  stroke-linejoin="round"
                />
                <path
                  d="M15.2479 14.7335C16.0129 14.733 16.7668 14.9169 17.4456 15.2695C18.1245 15.6221 18.7084 16.1331 19.1479 16.7593"
                  stroke="#81859C"
                  stroke-width="0.8"
                  stroke-linecap="round"
                  stroke-linejoin="round"
                />
              </svg>